# xmcd
#
# Track frame offsets:
#	150
#	15378
#	30331
#	41924
#	53623
#	67289
#	79584
#	93444
#	108068
#	120822
#
# Disc length: 1793 seconds
#
# Revision: 1
# Processed by: cddbd v1.5.2PL0 Copyright (c) Steve Scherf et al.
# Submitted via: audiograbber 1.83.01
#
DISCID=6c06ff0a
DTITLE=Lacy J. Dalton - Best Of The Best
DYEAR=1900
DGENRE=Country
TTITLE0=Takin' It Easy
TTITLE1=Everybody Makes Mistakes
TTITLE2=Hard Times
TTITLE3=Hillbilly Girl With The Blues
TTITLE4=16th Avenue
TTITLE5=Dream Baby
TTITLE6=Whisper
TTITLE7=Working Class Man
TTITLE8=Crazy Blue Eyes
TTITLE9=Tennessee Waltz
EXTD=
EXTT0=
EXTT1=
EXTT2=
EXTT3=
EXTT4=
EXTT5=
EXTT6=
EXTT7=
EXTT8=
EXTT9=
PLAYORDER=
